<?xml version="1.0" encoding="UTF-8" standalone="no"?>
<!DOCTYPE svg PUBLIC "-//W3C//DTD SVG 1.1//EN"
 "http://www.w3.org/Graphics/SVG/1.1/DTD/svg11.dtd">
<!-- Generated by graphviz version 5.0.0 (20220707.1540)
 -->
<!-- Title: dependencies Pages: 1 -->
<svg width="1150pt" height="247pt"
 viewBox="0.00 0.00 1150.00 246.80" xmlns="http://www.w3.org/2000/svg" xmlns:xlink="http://www.w3.org/1999/xlink">
<g id="graph0" class="graph" transform="scale(1 1) rotate(0) translate(4 242.8)">
<title>dependencies</title>
<polygon fill="white" stroke="transparent" points="-4,4 -4,-242.8 1146,-242.8 1146,4 -4,4"/>
<text text-anchor="middle" x="571" y="-8.2" font-family="sans-serif" font-size="14.00">dependencies</text>
<g id="clust1" class="cluster">
<title>cluster_SharedModule</title>
<polygon fill="none" stroke="black" stroke-dasharray="1,5" points="8,-32.8 8,-230.8 1134,-230.8 1134,-32.8 8,-32.8"/>
</g>
<g id="clust11" class="cluster">
<title>cluster_SharedModule_exports</title>
<polygon fill="none" stroke="black" points="16,-170.8 16,-222.8 1126,-222.8 1126,-170.8 16,-170.8"/>
</g>
<g id="clust2" class="cluster">
<title>cluster_SharedModule_declarations</title>
<polygon fill="none" stroke="black" points="26,-40.8 26,-92.8 1113,-92.8 1113,-40.8 26,-40.8"/>
</g>
<!-- AdminLayoutComponent -->
<g id="node1" class="node">
<title>AdminLayoutComponent</title>
<polygon fill="#ffffb3" stroke="black" points="1104.88,-84.8 945.12,-84.8 945.12,-48.8 1104.88,-48.8 1104.88,-84.8"/>
<text text-anchor="middle" x="1025" y="-62.6" font-family="Times,serif" font-size="14.00">AdminLayoutComponent</text>
</g>
<!-- SharedModule -->
<g id="node8" class="node">
<title>SharedModule</title>
<polygon fill="#8dd3c7" stroke="black" points="584.43,-149.8 581.43,-153.8 560.43,-153.8 557.43,-149.8 485.57,-149.8 485.57,-113.8 584.43,-113.8 584.43,-149.8"/>
<text text-anchor="middle" x="535" y="-127.6" font-family="Times,serif" font-size="14.00">SharedModule</text>
</g>
<!-- AdminLayoutComponent&#45;&gt;SharedModule -->
<g id="edge1" class="edge">
<title>AdminLayoutComponent&#45;&gt;SharedModule</title>
<path fill="none" stroke="black" d="M949.69,-85.02C949.69,-103.63 949.69,-129.8 949.69,-129.8 949.69,-129.8 594.61,-129.8 594.61,-129.8"/>
<polygon fill="black" stroke="black" points="594.61,-126.3 584.61,-129.8 594.61,-133.3 594.61,-126.3"/>
</g>
<!-- AuthLayoutComponent -->
<g id="node2" class="node">
<title>AuthLayoutComponent</title>
<polygon fill="#ffffb3" stroke="black" points="927.49,-84.8 778.51,-84.8 778.51,-48.8 927.49,-48.8 927.49,-84.8"/>
<text text-anchor="middle" x="853" y="-62.6" font-family="Times,serif" font-size="14.00">AuthLayoutComponent</text>
</g>
<!-- AuthLayoutComponent&#45;&gt;SharedModule -->
<g id="edge2" class="edge">
<title>AuthLayoutComponent&#45;&gt;SharedModule</title>
<path fill="none" stroke="black" d="M879.58,-84.83C879.58,-101.86 879.58,-124.8 879.58,-124.8 879.58,-124.8 594.37,-124.8 594.37,-124.8"/>
<polygon fill="black" stroke="black" points="594.37,-121.3 584.37,-124.8 594.37,-128.3 594.37,-121.3"/>
</g>
<!-- BlogLayoutComponent -->
<g id="node3" class="node">
<title>BlogLayoutComponent</title>
<polygon fill="#ffffb3" stroke="black" points="760.21,-84.8 611.79,-84.8 611.79,-48.8 760.21,-48.8 760.21,-84.8"/>
<text text-anchor="middle" x="686" y="-62.6" font-family="Times,serif" font-size="14.00">BlogLayoutComponent</text>
</g>
<!-- BlogLayoutComponent&#45;&gt;SharedModule -->
<g id="edge3" class="edge">
<title>BlogLayoutComponent&#45;&gt;SharedModule</title>
<path fill="none" stroke="black" d="M711.45,-85.04C711.45,-100.37 711.45,-119.8 711.45,-119.8 711.45,-119.8 594.62,-119.8 594.62,-119.8"/>
<polygon fill="black" stroke="black" points="594.62,-116.3 584.62,-119.8 594.62,-123.3 594.62,-116.3"/>
</g>
<!-- DeleteComponent -->
<g id="node4" class="node">
<title>DeleteComponent</title>
<polygon fill="#ffffb3" stroke="black" points="593.86,-84.8 476.14,-84.8 476.14,-48.8 593.86,-48.8 593.86,-84.8"/>
<text text-anchor="middle" x="535" y="-62.6" font-family="Times,serif" font-size="14.00">DeleteComponent</text>
</g>
<!-- DeleteComponent&#45;&gt;SharedModule -->
<g id="edge4" class="edge">
<title>DeleteComponent&#45;&gt;SharedModule</title>
<path fill="none" stroke="black" d="M535,-84.91C535,-84.91 535,-103.79 535,-103.79"/>
<polygon fill="black" stroke="black" points="531.5,-103.79 535,-113.79 538.5,-103.79 531.5,-103.79"/>
</g>
<!-- FooterComponent -->
<g id="node5" class="node">
<title>FooterComponent</title>
<polygon fill="#ffffb3" stroke="black" points="457.88,-84.8 340.12,-84.8 340.12,-48.8 457.88,-48.8 457.88,-84.8"/>
<text text-anchor="middle" x="399" y="-62.6" font-family="Times,serif" font-size="14.00">FooterComponent</text>
</g>
<!-- FooterComponent&#45;&gt;SharedModule -->
<g id="edge5" class="edge">
<title>FooterComponent&#45;&gt;SharedModule</title>
<path fill="none" stroke="black" d="M417.81,-85.04C417.81,-100.37 417.81,-119.8 417.81,-119.8 417.81,-119.8 475.64,-119.8 475.64,-119.8"/>
<polygon fill="black" stroke="black" points="475.64,-123.3 485.64,-119.8 475.64,-116.3 475.64,-123.3"/>
</g>
<!-- HeaderComponent -->
<g id="node6" class="node">
<title>HeaderComponent</title>
<polygon fill="#ffffb3" stroke="black" points="321.75,-84.8 200.25,-84.8 200.25,-48.8 321.75,-48.8 321.75,-84.8"/>
<text text-anchor="middle" x="261" y="-62.6" font-family="Times,serif" font-size="14.00">HeaderComponent</text>
</g>
<!-- HeaderComponent&#45;&gt;SharedModule -->
<g id="edge6" class="edge">
<title>HeaderComponent&#45;&gt;SharedModule</title>
<path fill="none" stroke="black" d="M278.46,-84.83C278.46,-101.86 278.46,-124.8 278.46,-124.8 278.46,-124.8 475.54,-124.8 475.54,-124.8"/>
<polygon fill="black" stroke="black" points="475.54,-128.3 485.54,-124.8 475.54,-121.3 475.54,-128.3"/>
</g>
<!-- LeftSidebarComponent -->
<g id="node7" class="node">
<title>LeftSidebarComponent</title>
<polygon fill="#ffffb3" stroke="black" points="181.91,-84.8 34.09,-84.8 34.09,-48.8 181.91,-48.8 181.91,-84.8"/>
<text text-anchor="middle" x="108" y="-62.6" font-family="Times,serif" font-size="14.00">LeftSidebarComponent</text>
</g>
<!-- LeftSidebarComponent&#45;&gt;SharedModule -->
<g id="edge7" class="edge">
<title>LeftSidebarComponent&#45;&gt;SharedModule</title>
<path fill="none" stroke="black" d="M178.08,-85.02C178.08,-103.63 178.08,-129.8 178.08,-129.8 178.08,-129.8 475.75,-129.8 475.75,-129.8"/>
<polygon fill="black" stroke="black" points="475.75,-133.3 485.75,-129.8 475.75,-126.3 475.75,-133.3"/>
</g>
<!-- AdminLayoutComponent  -->
<g id="node9" class="node">
<title>AdminLayoutComponent </title>
<polygon fill="#fb8072" stroke="black" points="1117.88,-214.8 954.12,-214.8 954.12,-178.8 1117.88,-178.8 1117.88,-214.8"/>
<text text-anchor="middle" x="1036" y="-192.6" font-family="Times,serif" font-size="14.00">AdminLayoutComponent </text>
</g>
<!-- SharedModule&#45;&gt;AdminLayoutComponent  -->
<g id="edge8" class="edge">
<title>SharedModule&#45;&gt;AdminLayoutComponent </title>
<path fill="none" stroke="black" stroke-dasharray="5,2" d="M584.23,-134.8C709.34,-134.8 1029.62,-134.8 1029.62,-134.8 1029.62,-134.8 1029.62,-168.53 1029.62,-168.53"/>
<polygon fill="black" stroke="black" points="1026.13,-168.53 1029.62,-178.53 1033.13,-168.53 1026.13,-168.53"/>
</g>
<!-- AuthLayoutComponent  -->
<g id="node10" class="node">
<title>AuthLayoutComponent </title>
<polygon fill="#fb8072" stroke="black" points="936.49,-214.8 783.51,-214.8 783.51,-178.8 936.49,-178.8 936.49,-214.8"/>
<text text-anchor="middle" x="860" y="-192.6" font-family="Times,serif" font-size="14.00">AuthLayoutComponent </text>
</g>
<!-- SharedModule&#45;&gt;AuthLayoutComponent  -->
<g id="edge9" class="edge">
<title>SharedModule&#45;&gt;AuthLayoutComponent </title>
<path fill="none" stroke="black" stroke-dasharray="5,2" d="M584.32,-139.8C668.68,-139.8 831.67,-139.8 831.67,-139.8 831.67,-139.8 831.67,-168.76 831.67,-168.76"/>
<polygon fill="black" stroke="black" points="828.17,-168.76 831.67,-178.76 835.17,-168.76 828.17,-168.76"/>
</g>
<!-- BlogLayoutComponent  -->
<g id="node11" class="node">
<title>BlogLayoutComponent </title>
<polygon fill="#fb8072" stroke="black" points="765.71,-214.8 614.29,-214.8 614.29,-178.8 765.71,-178.8 765.71,-214.8"/>
<text text-anchor="middle" x="690" y="-192.6" font-family="Times,serif" font-size="14.00">BlogLayoutComponent </text>
</g>
<!-- SharedModule&#45;&gt;BlogLayoutComponent  -->
<g id="edge10" class="edge">
<title>SharedModule&#45;&gt;BlogLayoutComponent </title>
<path fill="none" stroke="black" stroke-dasharray="5,2" d="M584.41,-144.8C620.37,-144.8 662.8,-144.8 662.8,-144.8 662.8,-144.8 662.8,-168.61 662.8,-168.61"/>
<polygon fill="black" stroke="black" points="659.3,-168.61 662.8,-178.61 666.3,-168.61 659.3,-168.61"/>
</g>
<!-- DeleteComponent  -->
<g id="node12" class="node">
<title>DeleteComponent </title>
<polygon fill="#fb8072" stroke="black" points="595.86,-214.8 474.14,-214.8 474.14,-178.8 595.86,-178.8 595.86,-214.8"/>
<text text-anchor="middle" x="535" y="-192.6" font-family="Times,serif" font-size="14.00">DeleteComponent </text>
</g>
<!-- SharedModule&#45;&gt;DeleteComponent  -->
<g id="edge11" class="edge">
<title>SharedModule&#45;&gt;DeleteComponent </title>
<path fill="none" stroke="black" stroke-dasharray="5,2" d="M535,-149.91C535,-149.91 535,-168.79 535,-168.79"/>
<polygon fill="black" stroke="black" points="531.5,-168.79 535,-178.79 538.5,-168.79 531.5,-168.79"/>
</g>
<!-- FooterComponent  -->
<g id="node13" class="node">
<title>FooterComponent </title>
<polygon fill="#fb8072" stroke="black" points="456.88,-214.8 335.12,-214.8 335.12,-178.8 456.88,-178.8 456.88,-214.8"/>
<text text-anchor="middle" x="396" y="-192.6" font-family="Times,serif" font-size="14.00">FooterComponent </text>
</g>
<!-- SharedModule&#45;&gt;FooterComponent  -->
<g id="edge12" class="edge">
<title>SharedModule&#45;&gt;FooterComponent </title>
<path fill="none" stroke="black" stroke-dasharray="5,2" d="M485.62,-144.8C439.9,-144.8 378.94,-144.8 378.94,-144.8 378.94,-144.8 378.94,-168.61 378.94,-168.61"/>
<polygon fill="black" stroke="black" points="375.44,-168.61 378.94,-178.61 382.44,-168.61 375.44,-168.61"/>
</g>
<!-- HeaderComponent  -->
<g id="node14" class="node">
<title>HeaderComponent </title>
<polygon fill="#fb8072" stroke="black" points="317.75,-214.8 192.25,-214.8 192.25,-178.8 317.75,-178.8 317.75,-214.8"/>
<text text-anchor="middle" x="255" y="-192.6" font-family="Times,serif" font-size="14.00">HeaderComponent </text>
</g>
<!-- SharedModule&#45;&gt;HeaderComponent  -->
<g id="edge13" class="edge">
<title>SharedModule&#45;&gt;HeaderComponent </title>
<path fill="none" stroke="black" stroke-dasharray="5,2" d="M485.51,-139.8C401.32,-139.8 239.29,-139.8 239.29,-139.8 239.29,-139.8 239.29,-168.76 239.29,-168.76"/>
<polygon fill="black" stroke="black" points="235.79,-168.76 239.29,-178.76 242.79,-168.76 235.79,-168.76"/>
</g>
<!-- LeftSidebarComponent  -->
<g id="node15" class="node">
<title>LeftSidebarComponent </title>
<polygon fill="#fb8072" stroke="black" points="174.41,-214.8 23.59,-214.8 23.59,-178.8 174.41,-178.8 174.41,-214.8"/>
<text text-anchor="middle" x="99" y="-192.6" font-family="Times,serif" font-size="14.00">LeftSidebarComponent </text>
</g>
<!-- SharedModule&#45;&gt;LeftSidebarComponent  -->
<g id="edge14" class="edge">
<title>SharedModule&#45;&gt;LeftSidebarComponent </title>
<path fill="none" stroke="black" stroke-dasharray="5,2" d="M485.6,-134.8C372.49,-134.8 104.38,-134.8 104.38,-134.8 104.38,-134.8 104.38,-168.53 104.38,-168.53"/>
<polygon fill="black" stroke="black" points="100.88,-168.53 104.38,-178.53 107.88,-168.53 100.88,-168.53"/>
</g>
</g>
</svg>
