<?xml version="1.0" encoding="UTF-8" standalone="no"?>
<!DOCTYPE svg PUBLIC "-//W3C//DTD SVG 1.1//EN"
 "http://www.w3.org/Graphics/SVG/1.1/DTD/svg11.dtd">
<!-- Generated by graphviz version 5.0.0 (20220707.1540)
 -->
<!-- Title: dependencies Pages: 1 -->
<svg width="725pt" height="174pt"
 viewBox="0.00 0.00 725.00 173.80" xmlns="http://www.w3.org/2000/svg" xmlns:xlink="http://www.w3.org/1999/xlink">
<g id="graph0" class="graph" transform="scale(1 1) rotate(0) translate(4 169.8)">
<title>dependencies</title>
<polygon fill="white" stroke="transparent" points="-4,4 -4,-169.8 721,-169.8 721,4 -4,4"/>
<text text-anchor="middle" x="358.5" y="-8.2" font-family="sans-serif" font-size="14.00">dependencies</text>
<g id="clust1" class="cluster">
<title>cluster_AuthModule</title>
<polygon fill="none" stroke="black" stroke-dasharray="1,5" points="8,-32.8 8,-157.8 709,-157.8 709,-32.8 8,-32.8"/>
</g>
<g id="clust5" class="cluster">
<title>cluster_AuthModule_imports</title>
<polygon fill="none" stroke="black" points="436,-40.8 436,-92.8 701,-92.8 701,-40.8 436,-40.8"/>
</g>
<g id="clust2" class="cluster">
<title>cluster_AuthModule_declarations</title>
<polygon fill="none" stroke="black" points="158,-40.8 158,-92.8 428,-92.8 428,-40.8 158,-40.8"/>
</g>
<g id="clust8" class="cluster">
<title>cluster_AuthModule_providers</title>
<polygon fill="none" stroke="black" points="16,-40.8 16,-92.8 150,-92.8 150,-40.8 16,-40.8"/>
</g>
<!-- LoginComponent -->
<g id="node1" class="node">
<title>LoginComponent</title>
<polygon fill="#ffffb3" stroke="black" points="420.27,-84.8 305.73,-84.8 305.73,-48.8 420.27,-48.8 420.27,-84.8"/>
<text text-anchor="middle" x="363" y="-62.6" font-family="Times,serif" font-size="14.00">LoginComponent</text>
</g>
<!-- AuthModule -->
<g id="node3" class="node">
<title>AuthModule</title>
<polygon fill="#8dd3c7" stroke="black" points="406.55,-149.8 403.55,-153.8 382.55,-153.8 379.55,-149.8 319.45,-149.8 319.45,-113.8 406.55,-113.8 406.55,-149.8"/>
<text text-anchor="middle" x="363" y="-127.6" font-family="Times,serif" font-size="14.00">AuthModule</text>
</g>
<!-- LoginComponent&#45;&gt;AuthModule -->
<g id="edge1" class="edge">
<title>LoginComponent&#45;&gt;AuthModule</title>
<path fill="none" stroke="black" d="M363,-84.91C363,-84.91 363,-103.79 363,-103.79"/>
<polygon fill="black" stroke="black" points="359.5,-103.79 363,-113.79 366.5,-103.79 359.5,-103.79"/>
</g>
<!-- SignupComponent -->
<g id="node2" class="node">
<title>SignupComponent</title>
<polygon fill="#ffffb3" stroke="black" points="287.51,-84.8 166.49,-84.8 166.49,-48.8 287.51,-48.8 287.51,-84.8"/>
<text text-anchor="middle" x="227" y="-62.6" font-family="Times,serif" font-size="14.00">SignupComponent</text>
</g>
<!-- SignupComponent&#45;&gt;AuthModule -->
<g id="edge2" class="edge">
<title>SignupComponent&#45;&gt;AuthModule</title>
<path fill="none" stroke="black" d="M227,-84.82C227,-102.17 227,-125.8 227,-125.8 227,-125.8 309.22,-125.8 309.22,-125.8"/>
<polygon fill="black" stroke="black" points="309.22,-129.3 319.22,-125.8 309.22,-122.3 309.22,-129.3"/>
</g>
<!-- AuthRoutingModule -->
<g id="node4" class="node">
<title>AuthRoutingModule</title>
<polygon fill="#8dd3c7" stroke="black" points="693.17,-84.8 690.17,-88.8 669.17,-88.8 666.17,-84.8 560.83,-84.8 560.83,-48.8 693.17,-48.8 693.17,-84.8"/>
<text text-anchor="middle" x="627" y="-62.6" font-family="Times,serif" font-size="14.00">AuthRoutingModule</text>
</g>
<!-- AuthRoutingModule&#45;&gt;AuthModule -->
<g id="edge3" class="edge">
<title>AuthRoutingModule&#45;&gt;AuthModule</title>
<path fill="none" stroke="black" d="M627,-85.08C627,-106.12 627,-137.8 627,-137.8 627,-137.8 416.59,-137.8 416.59,-137.8"/>
<polygon fill="black" stroke="black" points="416.59,-134.3 406.59,-137.8 416.59,-141.3 416.59,-134.3"/>
</g>
<!-- SharedModule -->
<g id="node5" class="node">
<title>SharedModule</title>
<polygon fill="#8dd3c7" stroke="black" points="542.43,-84.8 539.43,-88.8 518.43,-88.8 515.43,-84.8 443.57,-84.8 443.57,-48.8 542.43,-48.8 542.43,-84.8"/>
<text text-anchor="middle" x="493" y="-62.6" font-family="Times,serif" font-size="14.00">SharedModule</text>
</g>
<!-- SharedModule&#45;&gt;AuthModule -->
<g id="edge4" class="edge">
<title>SharedModule&#45;&gt;AuthModule</title>
<path fill="none" stroke="black" d="M493,-84.82C493,-102.17 493,-125.8 493,-125.8 493,-125.8 416.65,-125.8 416.65,-125.8"/>
<polygon fill="black" stroke="black" points="416.65,-122.3 406.65,-125.8 416.65,-129.3 416.65,-122.3"/>
</g>
<!-- AuthService -->
<g id="node6" class="node">
<title>AuthService</title>
<ellipse fill="#fdb462" stroke="black" cx="83" cy="-66.8" rx="59.11" ry="18"/>
<text text-anchor="middle" x="83" y="-62.6" font-family="Times,serif" font-size="14.00">AuthService</text>
</g>
<!-- AuthService&#45;&gt;AuthModule -->
<g id="edge5" class="edge">
<title>AuthService&#45;&gt;AuthModule</title>
<path fill="none" stroke="black" d="M83,-85.08C83,-106.12 83,-137.8 83,-137.8 83,-137.8 309.25,-137.8 309.25,-137.8"/>
<polygon fill="black" stroke="black" points="309.25,-141.3 319.25,-137.8 309.25,-134.3 309.25,-141.3"/>
</g>
</g>
</svg>
