<?xml version="1.0" encoding="UTF-8" standalone="no"?>
<!DOCTYPE svg PUBLIC "-//W3C//DTD SVG 1.1//EN"
 "http://www.w3.org/Graphics/SVG/1.1/DTD/svg11.dtd">
<!-- Generated by graphviz version 5.0.0 (20220707.1540)
 -->
<!-- Title: dependencies Pages: 1 -->
<svg width="941pt" height="174pt"
 viewBox="0.00 0.00 941.00 173.80" xmlns="http://www.w3.org/2000/svg" xmlns:xlink="http://www.w3.org/1999/xlink">
<g id="graph0" class="graph" transform="scale(1 1) rotate(0) translate(4 169.8)">
<title>dependencies</title>
<polygon fill="white" stroke="transparent" points="-4,4 -4,-169.8 937,-169.8 937,4 -4,4"/>
<text text-anchor="middle" x="466.5" y="-8.2" font-family="sans-serif" font-size="14.00">dependencies</text>
<g id="clust1" class="cluster">
<title>cluster_AdminModule</title>
<polygon fill="none" stroke="black" stroke-dasharray="1,5" points="8,-32.8 8,-157.8 925,-157.8 925,-32.8 8,-32.8"/>
</g>
<g id="clust2" class="cluster">
<title>cluster_AdminModule_declarations</title>
<polygon fill="none" stroke="black" points="300,-40.8 300,-92.8 917,-92.8 917,-40.8 300,-40.8"/>
</g>
<g id="clust7" class="cluster">
<title>cluster_AdminModule_imports</title>
<polygon fill="none" stroke="black" points="16,-40.8 16,-92.8 292,-92.8 292,-40.8 16,-40.8"/>
</g>
<!-- BotAddEditComponent -->
<g id="node1" class="node">
<title>BotAddEditComponent</title>
<polygon fill="#ffffb3" stroke="black" points="908.5,-84.8 759.5,-84.8 759.5,-48.8 908.5,-48.8 908.5,-84.8"/>
<text text-anchor="middle" x="834" y="-62.6" font-family="Times,serif" font-size="14.00">BotAddEditComponent</text>
</g>
<!-- AdminModule -->
<g id="node5" class="node">
<title>AdminModule</title>
<polygon fill="#8dd3c7" stroke="black" points="496.44,-149.8 493.44,-153.8 472.44,-153.8 469.44,-149.8 397.56,-149.8 397.56,-113.8 496.44,-113.8 496.44,-149.8"/>
<text text-anchor="middle" x="447" y="-127.6" font-family="Times,serif" font-size="14.00">AdminModule</text>
</g>
<!-- BotAddEditComponent&#45;&gt;AdminModule -->
<g id="edge1" class="edge">
<title>BotAddEditComponent&#45;&gt;AdminModule</title>
<path fill="none" stroke="black" d="M834,-85.08C834,-106.12 834,-137.8 834,-137.8 834,-137.8 506.41,-137.8 506.41,-137.8"/>
<polygon fill="black" stroke="black" points="506.41,-134.3 496.41,-137.8 506.41,-141.3 506.41,-134.3"/>
</g>
<!-- BotListComponent -->
<g id="node2" class="node">
<title>BotListComponent</title>
<polygon fill="#ffffb3" stroke="black" points="741.84,-84.8 618.16,-84.8 618.16,-48.8 741.84,-48.8 741.84,-84.8"/>
<text text-anchor="middle" x="680" y="-62.6" font-family="Times,serif" font-size="14.00">BotListComponent</text>
</g>
<!-- BotListComponent&#45;&gt;AdminModule -->
<g id="edge2" class="edge">
<title>BotListComponent&#45;&gt;AdminModule</title>
<path fill="none" stroke="black" d="M680,-84.82C680,-102.17 680,-125.8 680,-125.8 680,-125.8 506.41,-125.8 506.41,-125.8"/>
<polygon fill="black" stroke="black" points="506.41,-122.3 496.41,-125.8 506.41,-129.3 506.41,-122.3"/>
</g>
<!-- FaqAddEditComponent -->
<g id="node3" class="node">
<title>FaqAddEditComponent</title>
<polygon fill="#ffffb3" stroke="black" points="599.77,-84.8 450.23,-84.8 450.23,-48.8 599.77,-48.8 599.77,-84.8"/>
<text text-anchor="middle" x="525" y="-62.6" font-family="Times,serif" font-size="14.00">FaqAddEditComponent</text>
</g>
<!-- FaqAddEditComponent&#45;&gt;AdminModule -->
<g id="edge3" class="edge">
<title>FaqAddEditComponent&#45;&gt;AdminModule</title>
<path fill="none" stroke="black" d="M473.17,-84.91C473.17,-84.91 473.17,-103.79 473.17,-103.79"/>
<polygon fill="black" stroke="black" points="469.67,-103.79 473.17,-113.79 476.67,-103.79 469.67,-103.79"/>
</g>
<!-- FaqListComponent -->
<g id="node4" class="node">
<title>FaqListComponent</title>
<polygon fill="#ffffb3" stroke="black" points="432.11,-84.8 307.89,-84.8 307.89,-48.8 432.11,-48.8 432.11,-84.8"/>
<text text-anchor="middle" x="370" y="-62.6" font-family="Times,serif" font-size="14.00">FaqListComponent</text>
</g>
<!-- FaqListComponent&#45;&gt;AdminModule -->
<g id="edge4" class="edge">
<title>FaqListComponent&#45;&gt;AdminModule</title>
<path fill="none" stroke="black" d="M414.92,-84.91C414.92,-84.91 414.92,-103.79 414.92,-103.79"/>
<polygon fill="black" stroke="black" points="411.42,-103.79 414.92,-113.79 418.42,-103.79 411.42,-103.79"/>
</g>
<!-- AdminRoutingModule -->
<g id="node6" class="node">
<title>AdminRoutingModule</title>
<polygon fill="#8dd3c7" stroke="black" points="283.56,-84.8 280.56,-88.8 259.56,-88.8 256.56,-84.8 140.44,-84.8 140.44,-48.8 283.56,-48.8 283.56,-84.8"/>
<text text-anchor="middle" x="212" y="-62.6" font-family="Times,serif" font-size="14.00">AdminRoutingModule</text>
</g>
<!-- AdminRoutingModule&#45;&gt;AdminModule -->
<g id="edge5" class="edge">
<title>AdminRoutingModule&#45;&gt;AdminModule</title>
<path fill="none" stroke="black" d="M212,-84.82C212,-102.17 212,-125.8 212,-125.8 212,-125.8 387.74,-125.8 387.74,-125.8"/>
<polygon fill="black" stroke="black" points="387.74,-129.3 397.74,-125.8 387.74,-122.3 387.74,-129.3"/>
</g>
<!-- SharedModule -->
<g id="node7" class="node">
<title>SharedModule</title>
<polygon fill="#8dd3c7" stroke="black" points="122.43,-84.8 119.43,-88.8 98.43,-88.8 95.43,-84.8 23.57,-84.8 23.57,-48.8 122.43,-48.8 122.43,-84.8"/>
<text text-anchor="middle" x="73" y="-62.6" font-family="Times,serif" font-size="14.00">SharedModule</text>
</g>
<!-- SharedModule&#45;&gt;AdminModule -->
<g id="edge6" class="edge">
<title>SharedModule&#45;&gt;AdminModule</title>
<path fill="none" stroke="black" d="M73,-85.08C73,-106.12 73,-137.8 73,-137.8 73,-137.8 387.72,-137.8 387.72,-137.8"/>
<polygon fill="black" stroke="black" points="387.72,-141.3 397.72,-137.8 387.72,-134.3 387.72,-141.3"/>
</g>
</g>
</svg>
