<?xml version="1.0" encoding="UTF-8" standalone="no"?>
<!DOCTYPE svg PUBLIC "-//W3C//DTD SVG 1.1//EN"
 "http://www.w3.org/Graphics/SVG/1.1/DTD/svg11.dtd">
<!-- Generated by graphviz version 5.0.0 (20220707.1540)
 -->
<!-- Title: dependencies Pages: 1 -->
<svg width="5914pt" height="253pt"
 viewBox="0.00 0.00 5914.00 252.80" xmlns="http://www.w3.org/2000/svg" xmlns:xlink="http://www.w3.org/1999/xlink">
<g id="graph0" class="graph" transform="scale(1 1) rotate(0) translate(4 248.8)">
<title>dependencies</title>
<polygon fill="white" stroke="transparent" points="-4,4 -4,-248.8 5910,-248.8 5910,4 -4,4"/>
<text text-anchor="middle" x="2953" y="-8.2" font-family="sans-serif" font-size="14.00">dependencies</text>
<g id="clust1" class="cluster">
<title>cluster_AdminModule</title>
<polygon fill="none" stroke="black" stroke-dasharray="1,5" points="8,-32.8 8,-160.8 925,-160.8 925,-32.8 8,-32.8"/>
</g>
<g id="clust2" class="cluster">
<title>cluster_AdminModule_declarations</title>
<polygon fill="none" stroke="black" points="16,-40.8 16,-92.8 633,-92.8 633,-40.8 16,-40.8"/>
</g>
<g id="clust7" class="cluster">
<title>cluster_AdminModule_imports</title>
<polygon fill="none" stroke="black" points="641,-40.8 641,-92.8 917,-92.8 917,-40.8 641,-40.8"/>
</g>
<g id="clust17" class="cluster">
<title>cluster_AppModule</title>
<polygon fill="none" stroke="black" stroke-dasharray="1,5" points="5608,-32.8 5608,-236.8 5898,-236.8 5898,-32.8 5608,-32.8"/>
</g>
<g id="clust18" class="cluster">
<title>cluster_AppModule_declarations</title>
<polygon fill="none" stroke="black" points="5768,-40.8 5768,-92.8 5890,-92.8 5890,-40.8 5768,-40.8"/>
</g>
<g id="clust20" class="cluster">
<title>cluster_AppModule_imports</title>
<polygon fill="none" stroke="black" points="5616,-40.8 5616,-92.8 5760,-92.8 5760,-40.8 5616,-40.8"/>
</g>
<g id="clust22" class="cluster">
<title>cluster_AppModule_bootstrap</title>
<polygon fill="none" stroke="black" points="5696,-176.8 5696,-228.8 5820,-228.8 5820,-176.8 5696,-176.8"/>
</g>
<g id="clust30" class="cluster">
<title>cluster_AuthModule</title>
<polygon fill="none" stroke="black" stroke-dasharray="1,5" points="3162,-32.8 3162,-160.8 3746,-160.8 3746,-32.8 3162,-32.8"/>
</g>
<g id="clust31" class="cluster">
<title>cluster_AuthModule_declarations</title>
<polygon fill="none" stroke="black" points="3468,-40.8 3468,-92.8 3738,-92.8 3738,-40.8 3468,-40.8"/>
</g>
<g id="clust34" class="cluster">
<title>cluster_AuthModule_imports</title>
<polygon fill="none" stroke="black" points="3312,-40.8 3312,-92.8 3460,-92.8 3460,-40.8 3312,-40.8"/>
</g>
<g id="clust37" class="cluster">
<title>cluster_AuthModule_providers</title>
<polygon fill="none" stroke="black" points="3170,-40.8 3170,-92.8 3304,-92.8 3304,-40.8 3170,-40.8"/>
</g>
<g id="clust44" class="cluster">
<title>cluster_SharedModule</title>
<polygon fill="none" stroke="black" stroke-dasharray="1,5" points="933,-100.8 933,-168.8 3154,-168.8 3154,-100.8 933,-100.8"/>
</g>
<g id="clust45" class="cluster">
<title>cluster_SharedModule_declarations</title>
<polygon fill="none" stroke="black" points="2059,-108.8 2059,-160.8 3146,-160.8 3146,-108.8 2059,-108.8"/>
</g>
<g id="clust54" class="cluster">
<title>cluster_SharedModule_exports</title>
<polygon fill="none" stroke="black" points="941,-108.8 941,-160.8 2051,-160.8 2051,-108.8 941,-108.8"/>
</g>
<g id="clust57" class="cluster">
<title>cluster_UserModule</title>
<polygon fill="none" stroke="black" stroke-dasharray="1,5" points="3754,-32.8 3754,-160.8 5600,-160.8 5600,-32.8 3754,-32.8"/>
</g>
<g id="clust58" class="cluster">
<title>cluster_UserModule_declarations</title>
<polygon fill="none" stroke="black" points="4182,-40.8 4182,-92.8 5592,-92.8 5592,-40.8 4182,-40.8"/>
</g>
<g id="clust68" class="cluster">
<title>cluster_UserModule_imports</title>
<polygon fill="none" stroke="black" points="4026,-40.8 4026,-92.8 4174,-92.8 4174,-40.8 4026,-40.8"/>
</g>
<g id="clust71" class="cluster">
<title>cluster_UserModule_providers</title>
<polygon fill="none" stroke="black" points="3762,-40.8 3762,-92.8 4018,-92.8 4018,-40.8 3762,-40.8"/>
</g>
<!-- BotAddEditComponent -->
<g id="node1" class="node">
<title>BotAddEditComponent</title>
<polygon fill="#ffffb3" stroke="black" points="624.5,-84.8 475.5,-84.8 475.5,-48.8 624.5,-48.8 624.5,-84.8"/>
<text text-anchor="middle" x="550" y="-62.6" font-family="Times,serif" font-size="14.00">BotAddEditComponent</text>
</g>
<!-- AdminModule -->
<g id="node5" class="node">
<title>AdminModule</title>
<polygon fill="#8dd3c7" stroke="black" points="522.44,-152.8 519.44,-156.8 498.44,-156.8 495.44,-152.8 423.56,-152.8 423.56,-116.8 522.44,-116.8 522.44,-152.8"/>
<text text-anchor="middle" x="473" y="-130.6" font-family="Times,serif" font-size="14.00">AdminModule</text>
</g>
<!-- BotAddEditComponent&#45;&gt;AdminModule -->
<g id="edge1" class="edge">
<title>BotAddEditComponent&#45;&gt;AdminModule</title>
<path fill="none" stroke="black" d="M498.86,-85.02C498.86,-85.02 498.86,-106.53 498.86,-106.53"/>
<polygon fill="black" stroke="black" points="495.36,-106.53 498.86,-116.53 502.36,-106.53 495.36,-106.53"/>
</g>
<!-- BotListComponent -->
<g id="node2" class="node">
<title>BotListComponent</title>
<polygon fill="#ffffb3" stroke="black" points="457.84,-84.8 334.16,-84.8 334.16,-48.8 457.84,-48.8 457.84,-84.8"/>
<text text-anchor="middle" x="396" y="-62.6" font-family="Times,serif" font-size="14.00">BotListComponent</text>
</g>
<!-- BotListComponent&#45;&gt;AdminModule -->
<g id="edge2" class="edge">
<title>BotListComponent&#45;&gt;AdminModule</title>
<path fill="none" stroke="black" d="M440.72,-85.02C440.72,-85.02 440.72,-106.53 440.72,-106.53"/>
<polygon fill="black" stroke="black" points="437.22,-106.53 440.72,-116.53 444.22,-106.53 437.22,-106.53"/>
</g>
<!-- FaqAddEditComponent -->
<g id="node3" class="node">
<title>FaqAddEditComponent</title>
<polygon fill="#ffffb3" stroke="black" points="315.77,-84.8 166.23,-84.8 166.23,-48.8 315.77,-48.8 315.77,-84.8"/>
<text text-anchor="middle" x="241" y="-62.6" font-family="Times,serif" font-size="14.00">FaqAddEditComponent</text>
</g>
<!-- FaqAddEditComponent&#45;&gt;AdminModule -->
<g id="edge3" class="edge">
<title>FaqAddEditComponent&#45;&gt;AdminModule</title>
<path fill="none" stroke="black" d="M241,-85.07C241,-103.36 241,-128.8 241,-128.8 241,-128.8 413.51,-128.8 413.51,-128.8"/>
<polygon fill="black" stroke="black" points="413.51,-132.3 423.51,-128.8 413.51,-125.3 413.51,-132.3"/>
</g>
<!-- FaqListComponent -->
<g id="node4" class="node">
<title>FaqListComponent</title>
<polygon fill="#ffffb3" stroke="black" points="148.11,-84.8 23.89,-84.8 23.89,-48.8 148.11,-48.8 148.11,-84.8"/>
<text text-anchor="middle" x="86" y="-62.6" font-family="Times,serif" font-size="14.00">FaqListComponent</text>
</g>
<!-- FaqListComponent&#45;&gt;AdminModule -->
<g id="edge4" class="edge">
<title>FaqListComponent&#45;&gt;AdminModule</title>
<path fill="none" stroke="black" d="M86,-85.09C86,-107.01 86,-140.8 86,-140.8 86,-140.8 413.59,-140.8 413.59,-140.8"/>
<polygon fill="black" stroke="black" points="413.59,-144.3 423.59,-140.8 413.59,-137.3 413.59,-144.3"/>
</g>
<!-- AdminRoutingModule -->
<g id="node6" class="node">
<title>AdminRoutingModule</title>
<polygon fill="#8dd3c7" stroke="black" points="792.56,-84.8 789.56,-88.8 768.56,-88.8 765.56,-84.8 649.44,-84.8 649.44,-48.8 792.56,-48.8 792.56,-84.8"/>
<text text-anchor="middle" x="721" y="-62.6" font-family="Times,serif" font-size="14.00">AdminRoutingModule</text>
</g>
<!-- AdminRoutingModule&#45;&gt;AdminModule -->
<g id="edge5" class="edge">
<title>AdminRoutingModule&#45;&gt;AdminModule</title>
<path fill="none" stroke="black" d="M721,-84.82C721,-102.17 721,-125.8 721,-125.8 721,-125.8 532.29,-125.8 532.29,-125.8"/>
<polygon fill="black" stroke="black" points="532.29,-122.3 522.29,-125.8 532.29,-129.3 532.29,-122.3"/>
</g>
<!-- SharedModule -->
<g id="node7" class="node">
<title>SharedModule</title>
<polygon fill="#8dd3c7" stroke="black" points="909.43,-84.8 906.43,-88.8 885.43,-88.8 882.43,-84.8 810.57,-84.8 810.57,-48.8 909.43,-48.8 909.43,-84.8"/>
<text text-anchor="middle" x="860" y="-62.6" font-family="Times,serif" font-size="14.00">SharedModule</text>
</g>
<!-- SharedModule&#45;&gt;AdminModule -->
<g id="edge6" class="edge">
<title>SharedModule&#45;&gt;AdminModule</title>
<path fill="none" stroke="black" d="M860,-85.02C860,-105.17 860,-134.8 860,-134.8 860,-134.8 532.41,-134.8 532.41,-134.8"/>
<polygon fill="black" stroke="black" points="532.41,-131.3 522.41,-134.8 532.41,-138.3 532.41,-131.3"/>
</g>
<!-- AuthModule -->
<g id="node14" class="node">
<title>AuthModule</title>
<polygon fill="#8dd3c7" stroke="black" points="3429.55,-152.8 3426.55,-156.8 3405.55,-156.8 3402.55,-152.8 3342.45,-152.8 3342.45,-116.8 3429.55,-116.8 3429.55,-152.8"/>
<text text-anchor="middle" x="3386" y="-130.6" font-family="Times,serif" font-size="14.00">AuthModule</text>
</g>
<!-- SharedModule&#45;&gt;AuthModule -->
<g id="edge13" class="edge">
<title>SharedModule&#45;&gt;AuthModule</title>
<path fill="none" stroke="black" d="M909.32,-51.8C1243.07,-51.8 3157.7,-51.8 3157.7,-51.8 3157.7,-51.8 3157.7,-140.8 3157.7,-140.8 3157.7,-140.8 3332.25,-140.8 3332.25,-140.8"/>
<polygon fill="black" stroke="black" points="3332.25,-144.3 3342.25,-140.8 3332.25,-137.3 3332.25,-144.3"/>
</g>
<!-- AdminLayoutComponent  -->
<g id="node24" class="node">
<title>AdminLayoutComponent </title>
<polygon fill="#fb8072" stroke="black" points="1874.88,-152.8 1711.12,-152.8 1711.12,-116.8 1874.88,-116.8 1874.88,-152.8"/>
<text text-anchor="middle" x="1793" y="-130.6" font-family="Times,serif" font-size="14.00">AdminLayoutComponent </text>
</g>
<!-- SharedModule&#45;&gt;AdminLayoutComponent  -->
<g id="edge22" class="edge">
<title>SharedModule&#45;&gt;AdminLayoutComponent </title>
<path fill="none" stroke="black" stroke-dasharray="5,2" d="M909.5,-72.8C1102.39,-72.8 1793,-72.8 1793,-72.8 1793,-72.8 1793,-106.53 1793,-106.53"/>
<polygon fill="black" stroke="black" points="1789.5,-106.53 1793,-116.53 1796.5,-106.53 1789.5,-106.53"/>
</g>
<!-- AuthLayoutComponent  -->
<g id="node25" class="node">
<title>AuthLayoutComponent </title>
<polygon fill="#fb8072" stroke="black" points="1693.49,-152.8 1540.51,-152.8 1540.51,-116.8 1693.49,-116.8 1693.49,-152.8"/>
<text text-anchor="middle" x="1617" y="-130.6" font-family="Times,serif" font-size="14.00">AuthLayoutComponent </text>
</g>
<!-- SharedModule&#45;&gt;AuthLayoutComponent  -->
<g id="edge23" class="edge">
<title>SharedModule&#45;&gt;AuthLayoutComponent </title>
<path fill="none" stroke="black" stroke-dasharray="5,2" d="M909.38,-75.8C1077.46,-75.8 1617,-75.8 1617,-75.8 1617,-75.8 1617,-106.78 1617,-106.78"/>
<polygon fill="black" stroke="black" points="1613.5,-106.78 1617,-116.78 1620.5,-106.78 1613.5,-106.78"/>
</g>
<!-- BlogLayoutComponent  -->
<g id="node26" class="node">
<title>BlogLayoutComponent </title>
<polygon fill="#fb8072" stroke="black" points="1522.71,-152.8 1371.29,-152.8 1371.29,-116.8 1522.71,-116.8 1522.71,-152.8"/>
<text text-anchor="middle" x="1447" y="-130.6" font-family="Times,serif" font-size="14.00">BlogLayoutComponent </text>
</g>
<!-- SharedModule&#45;&gt;BlogLayoutComponent  -->
<g id="edge24" class="edge">
<title>SharedModule&#45;&gt;BlogLayoutComponent </title>
<path fill="none" stroke="black" stroke-dasharray="5,2" d="M909.29,-77.8C1050.59,-77.8 1447,-77.8 1447,-77.8 1447,-77.8 1447,-106.76 1447,-106.76"/>
<polygon fill="black" stroke="black" points="1443.5,-106.76 1447,-116.76 1450.5,-106.76 1443.5,-106.76"/>
</g>
<!-- DeleteComponent  -->
<g id="node27" class="node">
<title>DeleteComponent </title>
<polygon fill="#fb8072" stroke="black" points="1352.86,-152.8 1231.14,-152.8 1231.14,-116.8 1352.86,-116.8 1352.86,-152.8"/>
<text text-anchor="middle" x="1292" y="-130.6" font-family="Times,serif" font-size="14.00">DeleteComponent </text>
</g>
<!-- SharedModule&#45;&gt;DeleteComponent  -->
<g id="edge25" class="edge">
<title>SharedModule&#45;&gt;DeleteComponent </title>
<path fill="none" stroke="black" stroke-dasharray="5,2" d="M909.56,-80.8C1023.03,-80.8 1292,-80.8 1292,-80.8 1292,-80.8 1292,-106.52 1292,-106.52"/>
<polygon fill="black" stroke="black" points="1288.5,-106.52 1292,-116.52 1295.5,-106.52 1288.5,-106.52"/>
</g>
<!-- FooterComponent  -->
<g id="node28" class="node">
<title>FooterComponent </title>
<polygon fill="#fb8072" stroke="black" points="1213.88,-152.8 1092.12,-152.8 1092.12,-116.8 1213.88,-116.8 1213.88,-152.8"/>
<text text-anchor="middle" x="1153" y="-130.6" font-family="Times,serif" font-size="14.00">FooterComponent </text>
</g>
<!-- SharedModule&#45;&gt;FooterComponent  -->
<g id="edge26" class="edge">
<title>SharedModule&#45;&gt;FooterComponent </title>
<path fill="none" stroke="black" stroke-dasharray="5,2" d="M909.37,-82.8C992.87,-82.8 1153,-82.8 1153,-82.8 1153,-82.8 1153,-106.61 1153,-106.61"/>
<polygon fill="black" stroke="black" points="1149.5,-106.61 1153,-116.61 1156.5,-106.61 1149.5,-106.61"/>
</g>
<!-- HeaderComponent  -->
<g id="node29" class="node">
<title>HeaderComponent </title>
<polygon fill="#fb8072" stroke="black" points="1074.75,-152.8 949.25,-152.8 949.25,-116.8 1074.75,-116.8 1074.75,-152.8"/>
<text text-anchor="middle" x="1012" y="-130.6" font-family="Times,serif" font-size="14.00">HeaderComponent </text>
</g>
<!-- SharedModule&#45;&gt;HeaderComponent  -->
<g id="edge27" class="edge">
<title>SharedModule&#45;&gt;HeaderComponent </title>
<path fill="none" stroke="black" stroke-dasharray="5,2" d="M884.61,-85.05C884.61,-107.82 884.61,-143.8 884.61,-143.8 884.61,-143.8 939.05,-143.8 939.05,-143.8"/>
<polygon fill="black" stroke="black" points="939.05,-147.3 949.05,-143.8 939.05,-140.3 939.05,-147.3"/>
</g>
<!-- LeftSidebarComponent  -->
<g id="node30" class="node">
<title>LeftSidebarComponent </title>
<polygon fill="#fb8072" stroke="black" points="2043.41,-152.8 1892.59,-152.8 1892.59,-116.8 2043.41,-116.8 2043.41,-152.8"/>
<text text-anchor="middle" x="1968" y="-130.6" font-family="Times,serif" font-size="14.00">LeftSidebarComponent </text>
</g>
<!-- SharedModule&#45;&gt;LeftSidebarComponent  -->
<g id="edge28" class="edge">
<title>SharedModule&#45;&gt;LeftSidebarComponent </title>
<path fill="none" stroke="black" stroke-dasharray="5,2" d="M909.4,-70.8C1124.41,-70.8 1968,-70.8 1968,-70.8 1968,-70.8 1968,-106.63 1968,-106.63"/>
<polygon fill="black" stroke="black" points="1964.5,-106.63 1968,-116.63 1971.5,-106.63 1964.5,-106.63"/>
</g>
<!-- UserModule -->
<g id="node40" class="node">
<title>UserModule</title>
<polygon fill="#8dd3c7" stroke="black" points="4560.99,-152.8 4557.99,-156.8 4536.99,-156.8 4533.99,-152.8 4475.01,-152.8 4475.01,-116.8 4560.99,-116.8 4560.99,-152.8"/>
<text text-anchor="middle" x="4518" y="-130.6" font-family="Times,serif" font-size="14.00">UserModule</text>
</g>
<!-- SharedModule&#45;&gt;UserModule -->
<g id="edge38" class="edge">
<title>SharedModule&#45;&gt;UserModule</title>
<path fill="none" stroke="black" d="M835.39,-84.99C835.39,-93.08 835.39,-100.8 835.39,-100.8 835.39,-100.8 4503.67,-100.8 4503.67,-100.8 4503.67,-100.8 4503.67,-106.61 4503.67,-106.61"/>
<polygon fill="black" stroke="black" points="4500.17,-106.61 4503.67,-116.61 4507.17,-106.61 4500.17,-106.61"/>
</g>
<!-- AppComponent -->
<g id="node8" class="node">
<title>AppComponent</title>
<polygon fill="#ffffb3" stroke="black" points="5881.94,-84.8 5776.06,-84.8 5776.06,-48.8 5881.94,-48.8 5881.94,-84.8"/>
<text text-anchor="middle" x="5829" y="-62.6" font-family="Times,serif" font-size="14.00">AppComponent</text>
</g>
<!-- AppModule -->
<g id="node9" class="node">
<title>AppModule</title>
<polygon fill="#8dd3c7" stroke="black" points="5799.66,-152.8 5796.66,-156.8 5775.66,-156.8 5772.66,-152.8 5716.34,-152.8 5716.34,-116.8 5799.66,-116.8 5799.66,-152.8"/>
<text text-anchor="middle" x="5758" y="-130.6" font-family="Times,serif" font-size="14.00">AppModule</text>
</g>
<!-- AppComponent&#45;&gt;AppModule -->
<g id="edge7" class="edge">
<title>AppComponent&#45;&gt;AppModule</title>
<path fill="none" stroke="black" d="M5788.06,-85.02C5788.06,-85.02 5788.06,-106.53 5788.06,-106.53"/>
<polygon fill="black" stroke="black" points="5784.56,-106.53 5788.06,-116.53 5791.56,-106.53 5784.56,-106.53"/>
</g>
<!-- AppComponent  -->
<g id="node11" class="node">
<title>AppComponent </title>
<polygon fill="#80b1d3" stroke="black" points="5812.44,-220.8 5703.56,-220.8 5703.56,-184.8 5812.44,-184.8 5812.44,-220.8"/>
<text text-anchor="middle" x="5758" y="-198.6" font-family="Times,serif" font-size="14.00">AppComponent </text>
</g>
<!-- AppModule&#45;&gt;AppComponent  -->
<g id="edge9" class="edge">
<title>AppModule&#45;&gt;AppComponent </title>
<path fill="none" stroke="black" stroke-dasharray="1,5" d="M5758,-153.02C5758,-153.02 5758,-174.53 5758,-174.53"/>
<polygon fill="black" stroke="black" points="5754.5,-174.53 5758,-184.53 5761.5,-174.53 5754.5,-174.53"/>
</g>
<!-- AppRoutingModule -->
<g id="node10" class="node">
<title>AppRoutingModule</title>
<polygon fill="#8dd3c7" stroke="black" points="5752.28,-84.8 5749.28,-88.8 5728.28,-88.8 5725.28,-84.8 5623.72,-84.8 5623.72,-48.8 5752.28,-48.8 5752.28,-84.8"/>
<text text-anchor="middle" x="5688" y="-62.6" font-family="Times,serif" font-size="14.00">AppRoutingModule</text>
</g>
<!-- AppRoutingModule&#45;&gt;AppModule -->
<g id="edge8" class="edge">
<title>AppRoutingModule&#45;&gt;AppModule</title>
<path fill="none" stroke="black" d="M5734.28,-85.02C5734.28,-85.02 5734.28,-106.53 5734.28,-106.53"/>
<polygon fill="black" stroke="black" points="5730.78,-106.53 5734.28,-116.53 5737.78,-106.53 5730.78,-106.53"/>
</g>
<!-- LoginComponent -->
<g id="node12" class="node">
<title>LoginComponent</title>
<polygon fill="#ffffb3" stroke="black" points="3730.27,-84.8 3615.73,-84.8 3615.73,-48.8 3730.27,-48.8 3730.27,-84.8"/>
<text text-anchor="middle" x="3673" y="-62.6" font-family="Times,serif" font-size="14.00">LoginComponent</text>
</g>
<!-- LoginComponent&#45;&gt;AuthModule -->
<g id="edge10" class="edge">
<title>LoginComponent&#45;&gt;AuthModule</title>
<path fill="none" stroke="black" d="M3673,-84.82C3673,-102.17 3673,-125.8 3673,-125.8 3673,-125.8 3439.59,-125.8 3439.59,-125.8"/>
<polygon fill="black" stroke="black" points="3439.59,-122.3 3429.59,-125.8 3439.59,-129.3 3439.59,-122.3"/>
</g>
<!-- SignupComponent -->
<g id="node13" class="node">
<title>SignupComponent</title>
<polygon fill="#ffffb3" stroke="black" points="3597.51,-84.8 3476.49,-84.8 3476.49,-48.8 3597.51,-48.8 3597.51,-84.8"/>
<text text-anchor="middle" x="3537" y="-62.6" font-family="Times,serif" font-size="14.00">SignupComponent</text>
</g>
<!-- SignupComponent&#45;&gt;AuthModule -->
<g id="edge11" class="edge">
<title>SignupComponent&#45;&gt;AuthModule</title>
<path fill="none" stroke="black" d="M3537,-84.81C3537,-100.85 3537,-121.8 3537,-121.8 3537,-121.8 3439.68,-121.8 3439.68,-121.8"/>
<polygon fill="black" stroke="black" points="3439.68,-118.3 3429.68,-121.8 3439.68,-125.3 3439.68,-118.3"/>
</g>
<!-- AuthRoutingModule -->
<g id="node15" class="node">
<title>AuthRoutingModule</title>
<polygon fill="#8dd3c7" stroke="black" points="3452.17,-84.8 3449.17,-88.8 3428.17,-88.8 3425.17,-84.8 3319.83,-84.8 3319.83,-48.8 3452.17,-48.8 3452.17,-84.8"/>
<text text-anchor="middle" x="3386" y="-62.6" font-family="Times,serif" font-size="14.00">AuthRoutingModule</text>
</g>
<!-- AuthRoutingModule&#45;&gt;AuthModule -->
<g id="edge12" class="edge">
<title>AuthRoutingModule&#45;&gt;AuthModule</title>
<path fill="none" stroke="black" d="M3386,-85.02C3386,-85.02 3386,-106.53 3386,-106.53"/>
<polygon fill="black" stroke="black" points="3382.5,-106.53 3386,-116.53 3389.5,-106.53 3382.5,-106.53"/>
</g>
<!-- AuthService -->
<g id="node16" class="node">
<title>AuthService</title>
<ellipse fill="#fdb462" stroke="black" cx="3237" cy="-66.8" rx="59.11" ry="18"/>
<text text-anchor="middle" x="3237" y="-62.6" font-family="Times,serif" font-size="14.00">AuthService</text>
</g>
<!-- AuthService&#45;&gt;AuthModule -->
<g id="edge14" class="edge">
<title>AuthService&#45;&gt;AuthModule</title>
<path fill="none" stroke="black" d="M3237,-85.07C3237,-103.36 3237,-128.8 3237,-128.8 3237,-128.8 3332.1,-128.8 3332.1,-128.8"/>
<polygon fill="black" stroke="black" points="3332.1,-132.3 3342.1,-128.8 3332.1,-125.3 3332.1,-132.3"/>
</g>
<!-- AdminLayoutComponent -->
<g id="node17" class="node">
<title>AdminLayoutComponent</title>
<polygon fill="#ffffb3" stroke="black" points="2971.88,-152.8 2812.12,-152.8 2812.12,-116.8 2971.88,-116.8 2971.88,-152.8"/>
<text text-anchor="middle" x="2892" y="-130.6" font-family="Times,serif" font-size="14.00">AdminLayoutComponent</text>
</g>
<!-- AdminLayoutComponent&#45;&gt;SharedModule -->
<g id="edge15" class="edge">
<title>AdminLayoutComponent&#45;&gt;SharedModule</title>
<path fill="none" stroke="black" d="M2892,-116.71C2892,-93.67 2892,-56.8 2892,-56.8 2892,-56.8 919.22,-56.8 919.22,-56.8"/>
<polygon fill="black" stroke="black" points="919.22,-53.3 909.22,-56.8 919.22,-60.3 919.22,-53.3"/>
</g>
<!-- AuthLayoutComponent -->
<g id="node18" class="node">
<title>AuthLayoutComponent</title>
<polygon fill="#ffffb3" stroke="black" points="2794.49,-152.8 2645.51,-152.8 2645.51,-116.8 2794.49,-116.8 2794.49,-152.8"/>
<text text-anchor="middle" x="2720" y="-130.6" font-family="Times,serif" font-size="14.00">AuthLayoutComponent</text>
</g>
<!-- AuthLayoutComponent&#45;&gt;SharedModule -->
<g id="edge16" class="edge">
<title>AuthLayoutComponent&#45;&gt;SharedModule</title>
<path fill="none" stroke="black" d="M2720,-116.79C2720,-94.31 2720,-58.8 2720,-58.8 2720,-58.8 919.27,-58.8 919.27,-58.8"/>
<polygon fill="black" stroke="black" points="919.27,-55.3 909.27,-58.8 919.27,-62.3 919.27,-55.3"/>
</g>
<!-- BlogLayoutComponent -->
<g id="node19" class="node">
<title>BlogLayoutComponent</title>
<polygon fill="#ffffb3" stroke="black" points="2627.21,-152.8 2478.79,-152.8 2478.79,-116.8 2627.21,-116.8 2627.21,-152.8"/>
<text text-anchor="middle" x="2553" y="-130.6" font-family="Times,serif" font-size="14.00">BlogLayoutComponent</text>
</g>
<!-- BlogLayoutComponent&#45;&gt;SharedModule -->
<g id="edge17" class="edge">
<title>BlogLayoutComponent&#45;&gt;SharedModule</title>
<path fill="none" stroke="black" d="M2553,-116.51C2553,-94.59 2553,-60.8 2553,-60.8 2553,-60.8 919.3,-60.8 919.3,-60.8"/>
<polygon fill="black" stroke="black" points="919.3,-57.3 909.3,-60.8 919.3,-64.3 919.3,-57.3"/>
</g>
<!-- DeleteComponent -->
<g id="node20" class="node">
<title>DeleteComponent</title>
<polygon fill="#ffffb3" stroke="black" points="2460.86,-152.8 2343.14,-152.8 2343.14,-116.8 2460.86,-116.8 2460.86,-152.8"/>
<text text-anchor="middle" x="2402" y="-130.6" font-family="Times,serif" font-size="14.00">DeleteComponent</text>
</g>
<!-- DeleteComponent&#45;&gt;SharedModule -->
<g id="edge18" class="edge">
<title>DeleteComponent&#45;&gt;SharedModule</title>
<path fill="none" stroke="black" d="M2402,-116.52C2402,-95.48 2402,-63.8 2402,-63.8 2402,-63.8 919.56,-63.8 919.56,-63.8"/>
<polygon fill="black" stroke="black" points="919.56,-60.3 909.56,-63.8 919.56,-67.3 919.56,-60.3"/>
</g>
<!-- FooterComponent -->
<g id="node21" class="node">
<title>FooterComponent</title>
<polygon fill="#ffffb3" stroke="black" points="2324.88,-152.8 2207.12,-152.8 2207.12,-116.8 2324.88,-116.8 2324.88,-152.8"/>
<text text-anchor="middle" x="2266" y="-130.6" font-family="Times,serif" font-size="14.00">FooterComponent</text>
</g>
<!-- FooterComponent&#45;&gt;SharedModule -->
<g id="edge19" class="edge">
<title>FooterComponent&#45;&gt;SharedModule</title>
<path fill="none" stroke="black" d="M2266,-116.67C2266,-96.23 2266,-65.8 2266,-65.8 2266,-65.8 919.22,-65.8 919.22,-65.8"/>
<polygon fill="black" stroke="black" points="919.22,-62.3 909.22,-65.8 919.22,-69.3 919.22,-62.3"/>
</g>
<!-- HeaderComponent -->
<g id="node22" class="node">
<title>HeaderComponent</title>
<polygon fill="#ffffb3" stroke="black" points="2188.75,-152.8 2067.25,-152.8 2067.25,-116.8 2188.75,-116.8 2188.75,-152.8"/>
<text text-anchor="middle" x="2128" y="-130.6" font-family="Times,serif" font-size="14.00">HeaderComponent</text>
</g>
<!-- HeaderComponent&#45;&gt;SharedModule -->
<g id="edge20" class="edge">
<title>HeaderComponent&#45;&gt;SharedModule</title>
<path fill="none" stroke="black" d="M2128,-116.77C2128,-97.22 2128,-68.8 2128,-68.8 2128,-68.8 919.32,-68.8 919.32,-68.8"/>
<polygon fill="black" stroke="black" points="919.32,-65.3 909.32,-68.8 919.32,-72.3 919.32,-65.3"/>
</g>
<!-- LeftSidebarComponent -->
<g id="node23" class="node">
<title>LeftSidebarComponent</title>
<polygon fill="#ffffb3" stroke="black" points="3137.91,-152.8 2990.09,-152.8 2990.09,-116.8 3137.91,-116.8 3137.91,-152.8"/>
<text text-anchor="middle" x="3064" y="-130.6" font-family="Times,serif" font-size="14.00">LeftSidebarComponent</text>
</g>
<!-- LeftSidebarComponent&#45;&gt;SharedModule -->
<g id="edge21" class="edge">
<title>LeftSidebarComponent&#45;&gt;SharedModule</title>
<path fill="none" stroke="black" d="M3064,-116.42C3064,-92.52 3064,-53.8 3064,-53.8 3064,-53.8 919.39,-53.8 919.39,-53.8"/>
<polygon fill="black" stroke="black" points="919.39,-50.3 909.39,-53.8 919.39,-57.3 919.39,-50.3"/>
</g>
<!-- CommentsComponent -->
<g id="node31" class="node">
<title>CommentsComponent</title>
<polygon fill="#ffffb3" stroke="black" points="5090,-84.8 4948,-84.8 4948,-48.8 5090,-48.8 5090,-84.8"/>
<text text-anchor="middle" x="5019" y="-62.6" font-family="Times,serif" font-size="14.00">CommentsComponent</text>
</g>
<!-- CommentsComponent&#45;&gt;UserModule -->
<g id="edge29" class="edge">
<title>CommentsComponent&#45;&gt;UserModule</title>
<path fill="none" stroke="black" d="M5019,-84.83C5019,-104.38 5019,-132.8 5019,-132.8 5019,-132.8 4571.15,-132.8 4571.15,-132.8"/>
<polygon fill="black" stroke="black" points="4571.15,-129.3 4561.15,-132.8 4571.15,-136.3 4571.15,-129.3"/>
</g>
<!-- CreateCommentsComponent -->
<g id="node32" class="node">
<title>CreateCommentsComponent</title>
<polygon fill="#ffffb3" stroke="black" points="4930.03,-84.8 4751.97,-84.8 4751.97,-48.8 4930.03,-48.8 4930.03,-84.8"/>
<text text-anchor="middle" x="4841" y="-62.6" font-family="Times,serif" font-size="14.00">CreateCommentsComponent</text>
</g>
<!-- CreateCommentsComponent&#45;&gt;UserModule -->
<g id="edge30" class="edge">
<title>CreateCommentsComponent&#45;&gt;UserModule</title>
<path fill="none" stroke="black" d="M4841,-85.1C4841,-103.07 4841,-127.8 4841,-127.8 4841,-127.8 4571.23,-127.8 4571.23,-127.8"/>
<polygon fill="black" stroke="black" points="4571.23,-124.3 4561.23,-127.8 4571.23,-131.3 4571.23,-124.3"/>
</g>
<!-- CreatePostComponent -->
<g id="node33" class="node">
<title>CreatePostComponent</title>
<polygon fill="#ffffb3" stroke="black" points="4733.99,-84.8 4592.01,-84.8 4592.01,-48.8 4733.99,-48.8 4733.99,-84.8"/>
<text text-anchor="middle" x="4663" y="-62.6" font-family="Times,serif" font-size="14.00">CreatePostComponent</text>
</g>
<!-- CreatePostComponent&#45;&gt;UserModule -->
<g id="edge31" class="edge">
<title>CreatePostComponent&#45;&gt;UserModule</title>
<path fill="none" stroke="black" d="M4663,-84.83C4663,-101.2 4663,-122.8 4663,-122.8 4663,-122.8 4571.11,-122.8 4571.11,-122.8"/>
<polygon fill="black" stroke="black" points="4571.11,-119.3 4561.11,-122.8 4571.11,-126.3 4571.11,-119.3"/>
</g>
<!-- HelloComponent -->
<g id="node34" class="node">
<title>HelloComponent</title>
<polygon fill="#ffffb3" stroke="black" points="4574.44,-84.8 4461.56,-84.8 4461.56,-48.8 4574.44,-48.8 4574.44,-84.8"/>
<text text-anchor="middle" x="4518" y="-62.6" font-family="Times,serif" font-size="14.00">HelloComponent</text>
</g>
<!-- HelloComponent&#45;&gt;UserModule -->
<g id="edge32" class="edge">
<title>HelloComponent&#45;&gt;UserModule</title>
<path fill="none" stroke="black" d="M4532.33,-85.02C4532.33,-85.02 4532.33,-106.53 4532.33,-106.53"/>
<polygon fill="black" stroke="black" points="4528.83,-106.53 4532.33,-116.53 4535.83,-106.53 4528.83,-106.53"/>
</g>
<!-- NavBarComponent -->
<g id="node35" class="node">
<title>NavBarComponent</title>
<polygon fill="#ffffb3" stroke="black" points="4443.37,-84.8 4318.63,-84.8 4318.63,-48.8 4443.37,-48.8 4443.37,-84.8"/>
<text text-anchor="middle" x="4381" y="-62.6" font-family="Times,serif" font-size="14.00">NavBarComponent</text>
</g>
<!-- NavBarComponent&#45;&gt;UserModule -->
<g id="edge33" class="edge">
<title>NavBarComponent&#45;&gt;UserModule</title>
<path fill="none" stroke="black" d="M4381,-84.97C4381,-103.89 4381,-130.8 4381,-130.8 4381,-130.8 4464.65,-130.8 4464.65,-130.8"/>
<polygon fill="black" stroke="black" points="4464.65,-134.3 4474.65,-130.8 4464.65,-127.3 4464.65,-134.3"/>
</g>
<!-- PostsComponent -->
<g id="node36" class="node">
<title>PostsComponent</title>
<polygon fill="#ffffb3" stroke="black" points="4300.4,-84.8 4189.6,-84.8 4189.6,-48.8 4300.4,-48.8 4300.4,-84.8"/>
<text text-anchor="middle" x="4245" y="-62.6" font-family="Times,serif" font-size="14.00">PostsComponent</text>
</g>
<!-- PostsComponent&#45;&gt;UserModule -->
<g id="edge34" class="edge">
<title>PostsComponent&#45;&gt;UserModule</title>
<path fill="none" stroke="black" d="M4245,-85.02C4245,-105.17 4245,-134.8 4245,-134.8 4245,-134.8 4464.74,-134.8 4464.74,-134.8"/>
<polygon fill="black" stroke="black" points="4464.74,-138.3 4474.74,-134.8 4464.74,-131.3 4464.74,-138.3"/>
</g>
<!-- TestComponent -->
<g id="node37" class="node">
<title>TestComponent</title>
<polygon fill="#ffffb3" stroke="black" points="5583.94,-84.8 5478.06,-84.8 5478.06,-48.8 5583.94,-48.8 5583.94,-84.8"/>
<text text-anchor="middle" x="5531" y="-62.6" font-family="Times,serif" font-size="14.00">TestComponent</text>
</g>
<!-- TestComponent&#45;&gt;UserModule -->
<g id="edge35" class="edge">
<title>TestComponent&#45;&gt;UserModule</title>
<path fill="none" stroke="black" d="M5531,-85.18C5531,-109.08 5531,-147.8 5531,-147.8 5531,-147.8 4571.2,-147.8 4571.2,-147.8"/>
<polygon fill="black" stroke="black" points="4571.2,-144.3 4561.2,-147.8 4571.2,-151.3 4571.2,-144.3"/>
</g>
<!-- UpdateCommentsComponent -->
<g id="node38" class="node">
<title>UpdateCommentsComponent</title>
<polygon fill="#ffffb3" stroke="black" points="5460.43,-84.8 5277.57,-84.8 5277.57,-48.8 5460.43,-48.8 5460.43,-84.8"/>
<text text-anchor="middle" x="5369" y="-62.6" font-family="Times,serif" font-size="14.00">UpdateCommentsComponent</text>
</g>
<!-- UpdateCommentsComponent&#45;&gt;UserModule -->
<g id="edge36" class="edge">
<title>UpdateCommentsComponent&#45;&gt;UserModule</title>
<path fill="none" stroke="black" d="M5369,-84.81C5369,-107.29 5369,-142.8 5369,-142.8 5369,-142.8 4571.08,-142.8 4571.08,-142.8"/>
<polygon fill="black" stroke="black" points="4571.08,-139.3 4561.08,-142.8 4571.08,-146.3 4571.08,-139.3"/>
</g>
<!-- UpdatePostsComponent -->
<g id="node39" class="node">
<title>UpdatePostsComponent</title>
<polygon fill="#ffffb3" stroke="black" points="5259.83,-84.8 5108.17,-84.8 5108.17,-48.8 5259.83,-48.8 5259.83,-84.8"/>
<text text-anchor="middle" x="5184" y="-62.6" font-family="Times,serif" font-size="14.00">UpdatePostsComponent</text>
</g>
<!-- UpdatePostsComponent&#45;&gt;UserModule -->
<g id="edge37" class="edge">
<title>UpdatePostsComponent&#45;&gt;UserModule</title>
<path fill="none" stroke="black" d="M5184,-85.08C5184,-106.12 5184,-137.8 5184,-137.8 5184,-137.8 4571.18,-137.8 4571.18,-137.8"/>
<polygon fill="black" stroke="black" points="4571.18,-134.3 4561.18,-137.8 4571.18,-141.3 4571.18,-134.3"/>
</g>
<!-- UserRoutingModule -->
<g id="node41" class="node">
<title>UserRoutingModule</title>
<polygon fill="#8dd3c7" stroke="black" points="4165.6,-84.8 4162.6,-88.8 4141.6,-88.8 4138.6,-84.8 4034.4,-84.8 4034.4,-48.8 4165.6,-48.8 4165.6,-84.8"/>
<text text-anchor="middle" x="4100" y="-62.6" font-family="Times,serif" font-size="14.00">UserRoutingModule</text>
</g>
<!-- UserRoutingModule&#45;&gt;UserModule -->
<g id="edge39" class="edge">
<title>UserRoutingModule&#45;&gt;UserModule</title>
<path fill="none" stroke="black" d="M4100,-84.84C4100,-106.46 4100,-139.8 4100,-139.8 4100,-139.8 4464.84,-139.8 4464.84,-139.8"/>
<polygon fill="black" stroke="black" points="4464.84,-143.3 4474.84,-139.8 4464.84,-136.3 4464.84,-143.3"/>
</g>
<!-- BotService -->
<g id="node42" class="node">
<title>BotService</title>
<ellipse fill="#fdb462" stroke="black" cx="3956" cy="-66.8" rx="53.89" ry="18"/>
<text text-anchor="middle" x="3956" y="-62.6" font-family="Times,serif" font-size="14.00">BotService</text>
</g>
<!-- BotService&#45;&gt;UserModule -->
<g id="edge40" class="edge">
<title>BotService&#45;&gt;UserModule</title>
<path fill="none" stroke="black" d="M3956,-85.05C3956,-107.82 3956,-143.8 3956,-143.8 3956,-143.8 4464.83,-143.8 4464.83,-143.8"/>
<polygon fill="black" stroke="black" points="4464.83,-147.3 4474.83,-143.8 4464.83,-140.3 4464.83,-147.3"/>
</g>
<!-- TestService -->
<g id="node43" class="node">
<title>TestService</title>
<ellipse fill="#fdb462" stroke="black" cx="3827" cy="-66.8" rx="56.74" ry="18"/>
<text text-anchor="middle" x="3827" y="-62.6" font-family="Times,serif" font-size="14.00">TestService</text>
</g>
<!-- TestService&#45;&gt;UserModule -->
<g id="edge41" class="edge">
<title>TestService&#45;&gt;UserModule</title>
<path fill="none" stroke="black" d="M3827,-85C3827,-109.16 3827,-148.8 3827,-148.8 3827,-148.8 4464.77,-148.8 4464.77,-148.8"/>
<polygon fill="black" stroke="black" points="4464.77,-152.3 4474.77,-148.8 4464.77,-145.3 4464.77,-152.3"/>
</g>
</g>
</svg>
